<svg xmlns="http://www.w3.org/2000/svg" width="48" height="48" viewBox="0 0 24 24"><path fill="#c800ff" fill-rule="evenodd" d="M14.285 2.142a3 3 0 0 0-4.57 0l-.042.05a1 1 0 0 1-.842.348l-.065-.005a3 3 0 0 0-3.23 3.231l.004.065a1 1 0 0 1-.348.842l-.05.042a3 3 0 0 0 0 4.57l.05.042a1 1 0 0 1 .348.842l-.005.065A3.002 3.002 0 0 0 8 15.429V22a1 1 0 0 0 1.555.832L12 21.202l2.445 1.63A1 1 0 0 0 16 22v-6.57a3.002 3.002 0 0 0 2.465-3.196l-.005-.065a1 1 0 0 1 .348-.842l.05-.042a3 3 0 0 0 0-4.57l-.05-.042a1 1 0 0 1-.348-.842l.005-.065a3 3 0 0 0-3.231-3.23l-.065.004a1 1 0 0 1-.842-.348zM10 20.132V16.15a3.002 3.002 0 0 0 4 0v3.98l-1.445-.963a1 1 0 0 0-1.11 0zm4.707-11.425a1 1 0 0 0-1.414-1.414L11 9.586l-.293-.293a1 1 0 0 0-1.414 1.414l1 1a1 1 0 0 0 1.414 0z" clip-rule="evenodd"/></svg>