<svg xmlns="http://www.w3.org/2000/svg" width="1em" height="1em" viewBox="0 0 72 72"><circle cx="36.446" cy="28.864" r="7.225" fill="#fff"/><path fill="#d22f27" d="M52.573 29.11c0-9.315-7.133-16.892-15.903-16.892s-15.903 7.577-15.903 16.896c.002.465.223 11.609 12.96 31.245a3.463 3.463 0 0 0 2.818 1.934c1.84 0 3.094-2.026 3.216-2.232C52.58 40.414 52.58 29.553 52.573 29.11M36.67 35.914a7.083 7.083 0 1 1 7.083-7.083a7.09 7.09 0 0 1-7.083 7.083"/><path fill="#ea5a47" d="M52.573 29.11c0-9.315-7.133-16.892-15.903-16.892a14.962 14.962 0 0 0-3.865.525c8.395.45 15.1 7.823 15.1 16.85c.006.443.006 11.303-12.813 30.95a5.847 5.847 0 0 1-.586.797c.52.584 1.257.928 2.04.954c1.839 0 3.093-2.027 3.215-2.233C52.58 40.414 52.58 29.553 52.573 29.11"/><g fill="none" stroke="#000" stroke-linecap="round" stroke-linejoin="round" stroke-width="2"><path d="M36.545 62.294a3.463 3.463 0 0 1-2.817-1.935C20.99 40.723 20.769 29.58 20.766 29.114c0-9.32 7.134-16.896 15.904-16.896s15.903 7.577 15.903 16.892c.007.444.007 11.304-12.812 30.95c-.122.207-1.377 2.234-3.216 2.234"/><path d="M36.67 35.914a7.083 7.083 0 1 1 7.083-7.083a7.09 7.09 0 0 1-7.083 7.083"/></g></svg>